{
	"asset":{
		"generator":"Khronos glTF Blender I/O v3.5.30",
		"version":"2.0"
	},
	"scene":0,
	"scenes":[
		{
			"name":"Scene",
			"nodes":[
				3
			]
		}
	],
	"nodes":[
		{
			"name":"Node_2",
			"rotation":[
				1.319117231285828e-16,
				1.0025483360881847e-23,
				-3.931275304963976e-24,
				1
			],
			"translation":[
				-1.0587911840678754e-22,
				0.9999998807907104,
				3.552713678800501e-15
			]
		},
		{
			"children":[
				0
			],
			"name":"Node_1",
			"rotation":[
				-8.557136332854043e-09,
				1.7114272665708086e-08,
				-2.928983286277023e-16,
				1
			]
		},
		{
			"mesh":0,
			"name":"Mesh_0",
			"skin":0
		},
		{
			"children":[
				2,
				1
			],
			"name":"Armature"
		}
	],
	"animations":[
		{
			"channels":[
				{
					"sampler":0,
					"target":{
						"node":1,
						"path":"translation"
					}
				},
				{
					"sampler":1,
					"target":{
						"node":1,
						"path":"rotation"
					}
				},
				{
					"sampler":2,
					"target":{
						"node":1,
						"path":"scale"
					}
				},
				{
					"sampler":3,
					"target":{
						"node":0,
						"path":"translation"
					}
				},
				{
					"sampler":4,
					"target":{
						"node":0,
						"path":"rotation"
					}
				},
				{
					"sampler":5,
					"target":{
						"node":0,
						"path":"scale"
					}
				}
			],
			"name":"Anim_0",
			"samplers":[
				{
					"input":6,
					"interpolation":"LINEAR",
					"output":7
				},
				{
					"input":6,
					"interpolation":"LINEAR",
					"output":8
				},
				{
					"input":6,
					"interpolation":"LINEAR",
					"output":9
				},
				{
					"input":6,
					"interpolation":"LINEAR",
					"output":10
				},
				{
					"input":6,
					"interpolation":"LINEAR",
					"output":11
				},
				{
					"input":6,
					"interpolation":"LINEAR",
					"output":12
				}
			]
		}
	],
	"materials":[
		{
			"name":"Material",
			"pbrMetallicRoughness":{
				"baseColorFactor":[
					0.800000011920929,
					0.800000011920929,
					0.800000011920929,
					1
				],
				"metallicFactor":0,
				"roughnessFactor":0.5
			}
		}
	],
	"meshes":[
		{
			"name":"Mesh_0",
			"primitives":[
				{
					"attributes":{
						"POSITION":0,
						"NORMAL":1,
						"JOINTS_0":2,
						"WEIGHTS_0":3
					},
					"indices":4,
					"material":0
				}
			]
		}
	],
	"skins":[
		{
			"inverseBindMatrices":5,
			"joints":[
				1,
				0
			],
			"name":"Armature"
		}
	],
	"accessors":[
		{
			"bufferView":0,
			"componentType":5126,
			"count":10,
			"max":[
				0.5,
				2,
				0
			],
			"min":[
				-0.5,
				0,
				0
			],
			"type":"VEC3"
		},
		{
			"bufferView":1,
			"componentType":5126,
			"count":10,
			"type":"VEC3"
		},
		{
			"bufferView":2,
			"componentType":5121,
			"count":10,
			"type":"VEC4"
		},
		{
			"bufferView":3,
			"componentType":5126,
			"count":10,
			"type":"VEC4"
		},
		{
			"bufferView":4,
			"componentType":5123,
			"count":24,
			"type":"SCALAR"
		},
		{
			"bufferView":5,
			"componentType":5126,
			"count":2,
			"type":"MAT4"
		},
		{
			"bufferView":6,
			"componentType":5126,
			"count":133,
			"max":[
				5.5
			],
			"min":[
				0
			],
			"type":"SCALAR"
		},
		{
			"bufferView":7,
			"componentType":5126,
			"count":133,
			"type":"VEC3"
		},
		{
			"bufferView":8,
			"componentType":5126,
			"count":133,
			"type":"VEC4"
		},
		{
			"bufferView":9,
			"componentType":5126,
			"count":133,
			"type":"VEC3"
		},
		{
			"bufferView":10,
			"componentType":5126,
			"count":133,
			"type":"VEC3"
		},
		{
			"bufferView":11,
			"componentType":5126,
			"count":133,
			"type":"VEC4"
		},
		{
			"bufferView":12,
			"componentType":5126,
			"count":133,
			"type":"VEC3"
		}
	],
	"bufferViews":[
		{
			"buffer":0,
			"byteLength":120,
			"byteOffset":0,
			"target":34962
		},
		{
			"buffer":0,
			"byteLength":120,
			"byteOffset":120,
			"target":34962
		},
		{
			"buffer":0,
			"byteLength":40,
			"byteOffset":240,
			"target":34962
		},
		{
			"buffer":0,
			"byteLength":160,
			"byteOffset":280,
			"target":34962
		},
		{
			"buffer":0,
			"byteLength":48,
			"byteOffset":440,
			"target":34963
		},
		{
			"buffer":0,
			"byteLength":128,
			"byteOffset":488
		},
		{
			"buffer":0,
			"byteLength":532,
			"byteOffset":616
		},
		{
			"buffer":0,
			"byteLength":1596,
			"byteOffset":1148
		},
		{
			"buffer":0,
			"byteLength":2128,
			"byteOffset":2744
		},
		{
			"buffer":0,
			"byteLength":1596,
			"byteOffset":4872
		},
		{
			"buffer":0,
			"byteLength":1596,
			"byteOffset":6468
		},
		{
			"buffer":0,
			"byteLength":2128,
			"byteOffset":8064
		},
		{
			"buffer":0,
			"byteLength":1596,
			"byteOffset":10192
		}
	],
	"buffers":[
		{
			"byteLength":11788,
			"uri":"data:application/octet-stream;base64,"
		}
	]
}
